<?xml version="1.0" standalone="no"?>
<!DOCTYPE svg PUBLIC "-//W3C//DTD SVG 20010904//EN"
 "http://www.w3.org/TR/2001/REC-SVG-20010904/DTD/svg10.dtd">
<svg version="1.0" xmlns="http://www.w3.org/2000/svg"
 width="200.000000pt" height="200.000000pt" viewBox="0 0 200.000000 200.000000"
 preserveAspectRatio="xMidYMid meet">

<g transform="translate(0.000000,200.000000) scale(0.100000,-0.100000)"
fill="#000000" stroke="none">
<path d="M0 1000 l0 -1000 1000 0 1000 0 0 1000 0 1000 -1000 0 -1000 0 0
-1000z m410 405 c0 -24 3 -25 55 -25 l55 0 0 -74 c0 -54 -4 -79 -16 -90 -19
-20 -24 -20 -52 0 -21 15 -25 15 -43 -2 -42 -38 -4 -74 79 -74 46 0 58 4 83
29 29 29 29 31 29 145 l0 116 29 0 30 0 3 -112 c3 -101 1 -116 -17 -136 l-19
-23 39 2 c22 1 50 -3 62 -9 31 -17 119 -15 154 4 44 22 59 67 59 179 l0 95 70
0 c39 0 70 -2 70 -5 0 -2 -27 -65 -60 -140 -33 -75 -60 -138 -60 -140 0 -3 18
-5 40 -5 34 0 42 4 55 30 15 28 19 30 78 30 60 0 63 -1 74 -30 10 -27 16 -30
52 -30 23 0 41 4 41 9 0 5 -12 35 -26 67 -15 33 -41 94 -60 137 l-33 77 74 0
75 0 0 -146 0 -145 43 3 42 3 0 73 c0 39 2 72 5 72 3 0 34 -34 68 -75 56 -67
66 -75 97 -75 l35 0 0 145 0 145 105 0 105 0 0 -150 0 -150 -130 0 -130 0 0
-32 0 -33 70 1 c38 1 70 -1 70 -3 0 -3 -34 -46 -76 -95 -65 -79 -75 -95 -70
-119 5 -24 2 -29 -14 -29 -17 0 -20 7 -20 40 l0 40 -80 0 c-79 0 -80 0 -80 25
0 24 2 25 71 25 l70 0 -3 33 -3 32 -68 3 c-64 3 -68 4 -65 25 3 20 9 22 81 25
l77 3 0 29 0 30 -120 0 -120 0 0 -149 c0 -110 3 -151 13 -154 6 -3 -7 -6 -30
-6 l-43 -1 0 155 0 155 -37 0 c-37 0 -39 -3 -87 -85 -28 -46 -52 -82 -54 -80
-3 3 -26 40 -51 82 -44 73 -50 78 -84 81 l-37 3 0 -155 0 -156 -85 2 -85 1 37
21 c21 12 48 37 61 56 20 29 23 44 20 93 -4 49 -9 62 -38 92 -41 42 -88 59
-147 52 -152 -17 -197 -222 -65 -289 19 -9 36 -18 38 -21 2 -2 -48 -4 -111 -5
-63 0 -115 2 -115 4 0 2 16 10 35 18 35 15 35 15 35 80 l0 66 -40 0 -40 0 0
-45 0 -45 -39 0 c-50 0 -80 25 -88 72 -5 32 -1 41 25 68 34 33 63 37 105 15
25 -13 31 -13 53 2 14 9 23 21 21 26 -8 24 -59 50 -106 55 -64 6 -131 -25
-161 -74 -12 -19 -22 -34 -23 -34 -1 0 -1 90 1 200 l3 200 119 0 120 0 0 -25z
m450 -63 c0 -106 -14 -135 -63 -130 -44 4 -57 35 -57 136 l0 82 60 0 60 0 0
-88z m671 68 c0 -11 0 -40 0 -65 0 -25 0 -48 0 -51 -1 -7 -111 124 -111 132 0
2 25 4 55 4 48 0 55 -3 56 -20z m-381 -97 c8 -21 16 -41 18 -45 2 -5 -12 -8
-32 -8 -20 0 -36 3 -36 6 0 16 24 84 30 84 3 0 12 -17 20 -37z m677 -410 c-3
-2 -37 -3 -76 -1 l-71 3 73 86 72 86 3 -85 c2 -46 1 -86 -1 -89z m-1110 143
c22 -19 28 -32 28 -66 0 -50 -29 -80 -77 -80 -43 0 -65 15 -77 53 -14 41 -2
78 31 101 32 22 62 20 95 -8z m433 -144 l0 -79 -97 -1 -98 -1 3 52 c6 109 4
107 42 44 44 -73 62 -72 108 6 19 31 36 57 38 57 2 0 4 -35 4 -78z m-905 -53
c19 -12 35 -22 35 -24 0 -1 -25 -3 -55 -4 l-55 -1 0 58 0 57 20 -33 c11 -18
36 -42 55 -53z m988 -177 c22 -19 22 -70 0 -94 -24 -27 -87 -24 -107 4 -53 75
38 151 107 90z m-959 3 c26 -27 29 -56 9 -84 -16 -20 -30 -27 -67 -29 l-46 -3
0 65 0 66 44 0 c26 0 51 -6 60 -15z m171 6 c-27 -4 -41 -12 -43 -23 -3 -15 4
-18 32 -18 20 0 36 -4 36 -10 0 -5 -16 -10 -35 -10 -28 0 -35 -4 -35 -20 0
-17 7 -20 40 -20 22 0 40 -4 40 -10 0 -5 -22 -10 -50 -10 l-50 0 0 65 0 65 53
-1 c51 -2 51 -2 12 -8z m150 -43 l24 -53 22 53 c22 50 47 74 34 31 -17 -52
-47 -109 -58 -109 -7 0 -24 29 -39 65 -32 77 -17 88 17 13z m228 45 c-35 -3
-43 -8 -43 -24 0 -15 7 -19 35 -19 19 0 35 -4 35 -10 0 -5 -16 -10 -35 -10
-28 0 -35 -4 -35 -20 0 -17 7 -20 40 -20 22 0 40 -4 40 -10 0 -5 -22 -10 -50
-10 l-50 0 0 65 0 65 53 -2 c50 -1 50 -2 10 -5z m147 -48 l0 -55 35 0 c19 0
35 -4 35 -10 0 -5 -20 -10 -45 -10 l-45 0 0 65 c0 37 4 65 10 65 6 0 10 -25
10 -55z m468 43 c30 -30 0 -78 -49 -78 -22 0 -29 -5 -29 -20 0 -11 -4 -20 -10
-20 -6 0 -10 28 -10 65 l0 65 43 0 c24 0 48 -5 55 -12z m157 3 c-27 -4 -41
-12 -43 -23 -3 -15 4 -18 32 -18 45 0 48 -18 4 -22 -22 -2 -34 -9 -36 -20 -3
-15 4 -18 37 -18 23 0 41 -4 41 -10 0 -5 -22 -10 -49 -10 l-49 0 1 65 1 65 51
-1 50 -2 -40 -6z m223 -3 c15 -15 16 -50 1 -65 -8 -8 -8 -17 0 -32 15 -27 -4
-28 -21 -1 -7 11 -23 20 -35 20 -16 0 -23 -6 -23 -20 0 -11 -4 -20 -10 -20 -6
0 -10 28 -10 65 l0 65 43 0 c24 0 48 -5 55 -12z"/>
<path d="M1146 664 c-24 -24 -20 -61 9 -80 23 -15 27 -15 50 0 42 28 24 96
-25 96 -10 0 -26 -7 -34 -16z"/>
<path d="M190 630 l0 -50 35 0 c33 0 55 20 55 49 0 20 -40 51 -65 51 -23 0
-25 -3 -25 -50z"/>
<path d="M1360 650 c0 -27 3 -30 30 -30 34 0 49 22 30 45 -7 8 -23 15 -36 15
-20 0 -24 -5 -24 -30z"/>
<path d="M1740 649 c0 -28 2 -30 32 -27 57 5 48 57 -9 58 -19 0 -23 -5 -23
-31z"/>
</g>
</svg>
