<svg version="1.1" id="Layer_1" xmlns="http://www.w3.org/2000/svg" xmlns:xlink="http://www.w3.org/1999/xlink" x="0px" y="0px"
	 width="100%" viewBox="0 0 512 512" enable-background="new 0 0 512 512" xml:space="preserve">
<path fill="#020101" opacity="1.000000" stroke="none"
	d="
M340.000000,1.000000
	C347.687592,1.000000 355.375153,1.000000 363.668518,1.384783
	C375.226196,2.968072 385.067871,7.231012 394.235901,13.054300
	C409.948853,23.034763 420.425934,37.394188 425.747772,54.916157
	C429.535645,67.387535 430.266205,80.343872 427.179840,93.533783
	C423.605011,108.811279 416.905792,122.195679 405.520996,132.737015
	C395.131775,142.356506 382.216522,148.133987 369.014526,152.988312
	C355.943207,157.794556 342.768707,162.320084 329.557465,166.997787
	C331.418671,166.997787 333.246033,166.997803 335.073425,166.997803
	C376.557556,166.997803 418.041656,166.993179 459.525787,167.001755
	C467.679718,167.003433 470.996552,170.355637 470.999115,178.573914
	C471.007385,205.230377 471.009155,231.886841 470.998047,258.543304
	C470.994629,266.696045 467.648376,269.985077 459.408539,270.000549
	C454.653015,270.009491 449.897522,270.002197 444.832703,270.002197
	C444.832703,290.286713 444.818542,309.931213 444.835388,329.575714
	C444.884369,386.716003 444.902344,443.856415 445.083038,500.996338
	C445.097748,505.653381 444.445892,509.703003 441.000000,513.000000
	C318.645782,513.000000 196.291550,513.000000 73.381790,512.649902
	C69.956650,509.966736 68.783371,507.066406 68.928009,503.270477
	C69.213287,495.783508 69.140450,488.281128 69.136429,480.785187
	C69.100227,413.309357 69.046730,345.833496 68.998672,278.357666
	C68.996712,275.607178 68.998413,272.856689 68.998413,270.002197
	C63.844604,270.002197 59.354740,270.006287 54.864883,270.001312
	C46.292103,269.991821 43.002457,266.763184 43.000271,258.315125
	C42.993458,231.989487 42.996807,205.663834 42.998291,179.338196
	C42.998814,170.082092 46.049095,166.998840 55.211285,166.998489
	C96.532547,166.996887 137.853806,166.997803 179.175064,166.997803
	C180.956070,166.997803 182.737076,166.997787 185.967651,166.997787
	C183.264221,166.113693 181.944138,165.705780 180.640076,165.251877
	C165.976715,160.148087 151.050034,155.679764 136.725693,149.755417
	C121.029434,143.263687 106.292068,134.645355 97.262215,119.468987
	C86.379524,101.178566 81.884399,81.447121 87.042946,60.298050
	C92.770607,36.815693 106.094231,19.078440 128.077377,8.600642
	C135.016159,5.293418 142.672211,3.491076 150.000000,1.000000
	C157.687576,1.000000 165.375168,1.000000 173.672363,1.387814
	C179.707306,3.184141 185.384094,3.988263 190.508255,6.120474
	C203.198898,11.401150 214.379700,18.612747 222.342636,30.519545
	C229.971085,41.926201 234.412430,54.550079 238.641769,67.308914
	C245.584076,88.252060 250.569275,109.693718 254.050858,131.488953
	C254.676666,135.406570 255.819885,139.241516 256.724213,143.114639
	C260.089874,129.664413 262.473022,116.341057 265.459320,103.154289
	C269.850006,83.766052 275.363800,64.690491 283.005066,46.287785
	C289.545959,30.535133 299.392761,17.523222 315.100128,10.125712
	C323.065887,6.374167 331.679352,3.997971 340.000000,1.000000
M363.807159,286.218597
	C356.647095,284.517242 349.487030,282.815887 341.264069,280.861969
	C343.548370,289.022980 345.574646,296.262115 347.553436,304.295044
	C349.067047,310.006805 350.580688,315.718567 352.042816,322.170105
	C352.854889,325.388458 353.696289,328.599731 354.471558,331.826935
	C355.404968,335.712494 353.988861,338.716949 350.710632,340.781769
	C347.454346,342.832764 344.318329,342.076477 341.485168,339.802917
	C340.070404,338.667633 338.818878,337.328979 337.115295,335.463379
	C333.595551,331.848846 330.075806,328.234314 326.256073,323.993683
	C313.223175,310.321472 300.190277,296.649292 286.914948,282.337341
	C283.130951,278.359131 279.346954,274.380920 275.562958,270.402710
	C275.010193,270.677826 274.457397,270.952911 273.904633,271.227997
	C273.904633,279.526672 273.904633,287.825317 273.686737,297.024994
	C273.680786,314.441681 273.684814,331.858429 273.654053,349.275055
	C273.650848,351.090393 274.027740,353.254974 273.199402,354.643951
	C271.710266,357.140930 269.769928,360.423828 267.404358,361.046448
	C265.037720,361.669342 261.856018,359.581757 259.166901,358.379608
	C258.248566,357.969086 257.740356,356.640991 256.978851,355.048431
	C251.843597,346.342987 246.708359,337.637543 241.583206,328.162262
	C238.941071,323.457184 236.298935,318.752106 233.077393,313.015228
	C228.681427,318.542938 224.333038,323.125916 221.026260,328.366180
	C215.380188,337.313568 210.429657,346.697723 205.106857,355.851837
	C200.882019,363.117676 196.147598,363.690155 189.919220,356.998596
	C189.630051,354.716522 189.099823,352.435638 189.088867,350.152222
	C188.973373,326.092682 188.940781,302.032684 189.017761,277.069458
	C189.017761,274.528839 189.017761,271.988220 189.017761,269.414368
	C183.720673,269.414368 179.016312,269.414368 173.354141,269.221344
	C146.627975,269.234711 119.901802,269.248047 92.265808,269.118317
	C90.050667,269.118317 87.835518,269.118317 85.424728,269.118317
	C85.424728,272.229919 85.424728,274.656250 85.271690,277.994354
	C85.265541,302.884125 85.246353,327.773895 85.283386,352.663605
	C85.285782,354.273590 85.721130,355.882935 85.749817,358.219208
	C85.617561,365.646393 85.485306,373.073547 85.191711,380.673370
	C85.191711,380.673370 85.328644,380.865936 85.283798,381.817627
	C85.279793,403.401337 85.253036,424.985046 85.290451,446.568695
	C85.298195,451.035156 85.544487,455.501221 85.401970,460.646545
	C85.472366,461.117065 85.542763,461.587585 85.449348,462.973022
	C85.438889,470.053741 85.428429,477.134460 85.262497,485.097534
	C85.405792,488.723297 85.549080,492.349060 85.587395,496.464447
	C86.047005,496.586761 86.506607,496.709045 87.900368,496.954773
	C109.945900,496.913452 131.991440,496.872131 154.966034,496.964508
	C162.398209,496.924255 169.830368,496.884003 178.139542,496.992279
	C204.443405,496.938812 230.747253,496.885376 257.690674,496.943695
	C257.902588,496.899597 258.114471,496.855530 259.208588,496.942322
	C266.496155,496.900024 273.783722,496.857727 281.988800,496.964386
	C308.332550,496.914917 334.676270,496.865417 361.949371,496.953583
	C369.216949,496.915558 376.484497,496.877533 384.712982,496.991089
	C399.277985,496.991089 413.843018,496.991089 428.341827,496.991089
	C428.341827,481.436584 428.341827,466.651367 428.520050,450.963715
	C428.543030,443.801544 428.566010,436.639404 428.660065,428.612823
	C428.658752,412.335449 428.699432,396.057922 428.640656,379.780762
	C428.604706,369.825806 428.416046,359.871399 428.296967,349.211761
	C428.327789,341.731537 428.358643,334.251282 428.616943,325.895020
	C428.616943,307.168915 428.616943,288.442780 428.616943,269.341400
	C420.162903,269.341400 412.239960,269.341400 403.349091,269.156433
	C399.332672,269.156433 395.316223,269.156433 390.084839,269.156433
	C393.086517,272.306946 395.205109,274.530579 397.760376,277.388123
	C400.923523,280.877258 403.565002,284.603851 400.469757,289.372742
	C397.588013,293.812744 393.346069,293.477295 388.890411,292.172760
	C386.839600,291.572296 384.672119,291.370209 381.869904,290.544037
	C376.057587,289.261261 370.245239,287.978516 363.807159,286.218597
M230.186630,183.964920
	C221.943207,183.964920 213.699768,183.964920 205.382324,183.964920
	C205.382324,230.432297 205.382324,276.169678 205.382324,323.100616
	C211.564362,312.273163 217.191833,302.502838 222.725067,292.679413
	C224.670929,289.224854 226.835983,286.190674 231.912918,285.925903
	C234.311035,287.746429 237.464249,289.089874 238.970505,291.473877
	C244.198608,299.748627 248.854874,308.384613 253.728577,316.883270
	C254.727615,318.625336 255.726151,320.367676 257.304077,323.120178
	C257.304077,275.843628 257.304077,230.017975 257.304077,184.113693
	C248.386108,184.113693 239.759781,184.113693 230.186630,183.964920
M60.043335,252.271835
	C61.606102,252.563965 63.168571,253.109375 64.731682,253.111221
	C104.522217,253.158188 144.312836,253.148254 184.103424,253.148270
	C185.679047,253.148270 187.254669,253.148254 188.722992,253.148254
	C188.722992,229.632568 188.722992,206.909302 188.722992,184.182800
	C145.683014,184.182800 102.983093,184.182800 59.903103,184.182800
	C59.903103,206.762177 59.903103,229.036285 60.043335,252.271835
M426.499969,253.158432
	C435.597198,253.158432 444.694458,253.158432 453.734314,253.158432
	C453.734314,229.710678 453.734314,206.855576 453.734314,184.326645
	C407.056824,184.326645 360.778503,184.326645 313.973633,184.326645
	C334.254150,206.886261 354.033203,228.959793 373.970062,250.889908
	C375.186096,252.227509 377.645447,253.040390 379.537994,253.061676
	C394.857056,253.233994 410.178925,253.158417 426.499969,253.158432
M240.909409,150.592865
	C240.605713,148.957443 240.288147,147.324478 240.000397,145.686249
	C234.845108,116.337158 228.828461,87.191040 218.210526,59.236214
	C214.732620,50.079639 211.068604,40.884945 203.747131,33.864017
	C183.571487,14.516512 153.264328,11.526531 129.603241,26.530121
	C106.344261,41.278732 96.258881,70.087807 104.752762,96.446510
	C111.137856,116.261116 125.492050,127.988686 144.098801,134.642563
	C165.987854,142.470215 188.221710,149.372025 210.465347,156.152740
	C220.982086,159.358658 231.869827,161.347565 243.154846,164.021851
	C242.340118,159.269745 241.669952,155.360901 240.909409,150.592865
M356.158142,17.132223
	C345.999603,16.516905 336.326294,18.405455 326.983368,22.437553
	C310.616119,29.501131 301.712708,42.793610 295.810059,58.840981
	C285.430634,87.059418 279.105133,116.275352 273.996704,145.805176
	C272.972107,151.728058 271.986755,157.657745 270.913574,163.996109
	C280.045959,161.857880 288.330139,160.052429 296.544312,157.970718
	C325.252533,150.695328 353.663605,142.698486 380.543335,129.761307
	C405.869415,117.571884 418.793030,86.076111 409.148804,58.459389
	C400.583710,33.932781 382.669525,20.545435 356.158142,17.132223
M273.796539,211.500000
	C273.796631,221.494934 273.689178,231.492035 273.889343,241.482971
	C273.928497,243.437912 274.635315,245.858246 275.921021,247.236938
	C292.613892,265.137695 309.462189,282.893585 326.293976,300.664551
	C327.151978,301.570404 328.215271,302.281799 330.248474,303.966736
	C329.819458,301.351868 329.694763,299.965851 329.356293,298.634125
	C327.637085,291.869995 326.254272,284.987640 324.026886,278.392090
	C319.158600,263.976654 326.583313,259.770538 338.588806,263.594818
	C348.562744,266.772003 358.977936,268.564026 369.597137,271.063690
	C369.205200,270.123810 369.150421,269.762543 368.946320,269.535614
	C343.900085,241.685684 318.849884,213.839340 293.755188,186.033127
	C292.932770,185.121841 291.673218,184.068695 290.581635,184.027390
	C285.152496,183.821899 279.711365,183.933563 273.796143,183.933563
	C273.796143,193.246475 273.796143,201.873230 273.796539,211.500000
M330.301147,304.405701
	C330.301147,304.405701 330.566406,304.540283 330.566406,304.540283
	C330.566406,304.540283 330.502899,304.196136 330.301147,304.405701
z"/>
<path fill="#FFFFFF" opacity="1.000000" stroke="none"
	d="
M149.531342,1.000000
	C142.672211,3.491076 135.016159,5.293418 128.077377,8.600642
	C106.094231,19.078440 92.770607,36.815693 87.042946,60.298050
	C81.884399,81.447121 86.379524,101.178566 97.262215,119.468987
	C106.292068,134.645355 121.029434,143.263687 136.725693,149.755417
	C151.050034,155.679764 165.976715,160.148087 180.640076,165.251877
	C181.944138,165.705780 183.264221,166.113693 185.967651,166.997787
	C182.737076,166.997787 180.956070,166.997803 179.175064,166.997803
	C137.853806,166.997803 96.532547,166.996887 55.211285,166.998489
	C46.049095,166.998840 42.998814,170.082092 42.998291,179.338196
	C42.996807,205.663834 42.993458,231.989487 43.000271,258.315125
	C43.002457,266.763184 46.292103,269.991821 54.864883,270.001312
	C59.354740,270.006287 63.844604,270.002197 68.998413,270.002197
	C68.998413,272.856689 68.996712,275.607178 68.998672,278.357666
	C69.046730,345.833496 69.100227,413.309357 69.136429,480.785187
	C69.140450,488.281128 69.213287,495.783508 68.928009,503.270477
	C68.783371,507.066406 69.956650,509.966736 72.913132,512.649902
	C49.014328,513.000000 25.028652,513.000000 1.021490,513.000000
	C1.021490,342.449554 1.021490,171.899078 1.021490,1.000000
	C50.353680,1.000000 99.708183,1.000000 149.531342,1.000000
z"/>
<path fill="#FFFFFF" opacity="1.000000" stroke="none"
	d="
M441.468658,513.000000
	C444.445892,509.703003 445.097748,505.653381 445.083038,500.996338
	C444.902344,443.856415 444.884369,386.716003 444.835388,329.575714
	C444.818542,309.931213 444.832703,290.286713 444.832703,270.002197
	C449.897522,270.002197 454.653015,270.009491 459.408539,270.000549
	C467.648376,269.985077 470.994629,266.696045 470.998047,258.543304
	C471.009155,231.886841 471.007385,205.230377 470.999115,178.573914
	C470.996552,170.355637 467.679718,167.003433 459.525787,167.001755
	C418.041656,166.993179 376.557556,166.997803 335.073425,166.997803
	C333.246033,166.997803 331.418671,166.997787 329.557465,166.997787
	C342.768707,162.320084 355.943207,157.794556 369.014526,152.988312
	C382.216522,148.133987 395.131775,142.356506 405.520996,132.737015
	C416.905792,122.195679 423.605011,108.811279 427.179840,93.533783
	C430.266205,80.343872 429.535645,67.387535 425.747772,54.916157
	C420.425934,37.394188 409.948853,23.034763 394.235901,13.054300
	C385.067871,7.231012 375.226196,2.968072 364.137146,1.384783
	C413.637024,1.000000 463.274048,1.000000 512.947449,1.000000
	C512.947449,171.666672 512.947449,342.333344 512.947449,513.000000
	C489.242371,513.000000 465.589844,513.000000 441.468658,513.000000
z"/>
<path fill="#FFFFFF" opacity="1.000000" stroke="none"
	d="
M339.531342,1.000000
	C331.679352,3.997971 323.065887,6.374167 315.100128,10.125712
	C299.392761,17.523222 289.545959,30.535133 283.005066,46.287785
	C275.363800,64.690491 269.850006,83.766052 265.459320,103.154289
	C262.473022,116.341057 260.089874,129.664413 256.724213,143.114639
	C255.819885,139.241516 254.676666,135.406570 254.050858,131.488953
	C250.569275,109.693718 245.584076,88.252060 238.641769,67.308914
	C234.412430,54.550079 229.971085,41.926201 222.342636,30.519545
	C214.379700,18.612747 203.198898,11.401150 190.508255,6.120474
	C185.384094,3.988263 179.707306,3.184141 174.140991,1.387814
	C229.020889,1.000000 284.041779,1.000000 339.531342,1.000000
z"/>
<path fill="#FF1E26" opacity="1.000000" stroke="none"
	d="
M382.557556,290.987488
	C384.672119,291.370209 386.839600,291.572296 388.890411,292.172760
	C393.346069,293.477295 397.588013,293.812744 400.469757,289.372742
	C403.565002,284.603851 400.923523,280.877258 397.782715,276.813477
	C399.975708,273.939697 402.146362,271.640533 404.316986,269.341400
	C412.239960,269.341400 420.162903,269.341400 428.616943,269.341400
	C428.616943,288.442780 428.616943,307.168915 428.316254,326.583923
	C426.784424,328.372833 425.496277,329.415833 424.330383,330.581146
	C370.587189,384.294342 316.853424,438.016998 263.126678,491.746643
	C261.482513,493.390869 259.924530,495.121246 258.326324,496.811432
	C258.114471,496.855530 257.902588,496.899597 257.355530,496.430908
	C257.016388,469.693787 257.012421,443.469421 257.159363,416.937042
	C271.992493,401.931915 286.692780,387.252808 301.351288,372.532104
	C313.424408,360.407776 325.447998,348.234100 337.493530,336.082306
	C338.818878,337.328979 340.070404,338.667633 341.485168,339.802917
	C344.318329,342.076477 347.454346,342.832764 350.710632,340.781769
	C353.988861,338.716949 355.404968,335.712494 354.471558,331.826935
	C353.696289,328.599731 352.854889,325.388458 352.382812,321.647156
	C362.667694,311.078583 372.612610,301.033020 382.557556,290.987488
z"/>
<path fill="#BF1E24" opacity="1.000000" stroke="none"
	d="
M85.692368,495.974823
	C85.549080,492.349060 85.405792,488.723297 85.595703,484.442444
	C87.171692,482.728424 88.494431,481.749481 89.645737,480.599030
	C130.378265,439.896057 171.087433,399.169739 211.818695,358.465485
	C221.703293,348.587463 231.653229,338.774811 241.573120,328.932098
	C246.708359,337.637543 251.843597,346.342987 257.007507,355.880310
	C257.027802,369.105042 257.019440,381.497894 256.877472,394.202515
	C222.508224,428.619751 188.272598,462.725311 154.036972,496.830841
	C131.991440,496.872131 109.945900,496.913452 87.326836,496.720459
	C86.399666,496.315674 86.046021,496.145264 85.692368,495.974823
z"/>
<path fill="#FF1D25" opacity="1.000000" stroke="none"
	d="
M59.973221,251.791122
	C59.903103,229.036285 59.903103,206.762177 59.903103,184.182800
	C102.983093,184.182800 145.683014,184.182800 188.722992,184.182800
	C188.722992,206.909302 188.722992,229.632568 188.722992,253.148254
	C187.254669,253.148254 185.679047,253.148270 184.103424,253.148270
	C144.312836,253.148254 104.522217,253.158188 64.731682,253.111221
	C63.168571,253.109375 61.606102,252.563965 59.973221,251.791122
z"/>
<path fill="#FF1E26" opacity="1.000000" stroke="none"
	d="
M428.295990,349.916748
	C428.416046,359.871399 428.604706,369.825806 428.640656,379.780762
	C428.699432,396.057922 428.658752,412.335449 428.369354,429.280396
	C405.725769,452.237305 383.372894,474.526642 361.020020,496.815948
	C334.676270,496.865417 308.332550,496.914917 281.666321,496.600525
	C328.666382,448.916870 375.987549,401.595673 423.319489,354.285278
	C424.483765,353.121582 425.767853,352.077698 427.387329,350.946136
	C428.036743,350.871277 428.294861,350.828247 428.447266,350.580322
	C428.341553,350.375488 428.295990,349.916748 428.295990,349.916748
z"/>
<path fill="#BF1E24" opacity="1.000000" stroke="none"
	d="
M188.885315,277.972839
	C188.940781,302.032684 188.973373,326.092682 189.088867,350.152222
	C189.099823,352.435638 189.630051,354.716522 189.667511,357.564575
	C156.658890,390.880920 123.904068,423.633362 91.137230,456.373779
	C89.854454,457.655579 88.456772,458.822357 86.873077,460.031250
	C86.315781,460.005768 85.998215,459.988312 85.680832,459.967468
	C85.544487,455.501221 85.298195,451.035156 85.290451,446.568695
	C85.253036,424.985046 85.279793,403.401337 85.439545,381.304810
	C85.754639,380.686096 85.865128,380.542542 86.225098,380.174927
	C113.317482,353.204529 140.100876,326.409912 166.912643,299.643738
	C174.192810,292.375977 181.558731,285.194122 188.885315,277.972839
z"/>
<path fill="#FF8E92" opacity="1.000000" stroke="none"
	d="
M425.999939,253.158447
	C410.178925,253.158417 394.857056,253.233994 379.537994,253.061676
	C377.645447,253.040390 375.186096,252.227509 373.970062,250.889908
	C354.033203,228.959793 334.254150,206.886261 313.973633,184.326645
	C360.778503,184.326645 407.056824,184.326645 453.734314,184.326645
	C453.734314,206.855576 453.734314,229.710678 453.734314,253.158432
	C444.694458,253.158432 435.597198,253.158432 425.999939,253.158447
M423.515137,194.987640
	C422.343140,197.601456 420.259399,200.181091 420.159882,202.835129
	C419.767792,213.291229 419.940277,223.771210 420.023193,234.241364
	C420.067596,239.843475 423.607208,243.743683 428.220032,243.593063
	C432.679443,243.447449 435.938019,239.697739 435.979614,234.319229
	C436.060608,223.849045 436.078857,213.377090 435.979675,202.907227
	C435.907898,195.329498 431.435028,192.254150 423.515137,194.987640
z"/>
<path fill="#78C642" opacity="1.000000" stroke="none"
	d="
M240.954605,151.022461
	C241.669952,155.360901 242.340118,159.269745 243.154846,164.021851
	C231.869827,161.347565 220.982086,159.358658 210.465347,156.152740
	C188.221710,149.372025 165.987854,142.470215 144.098801,134.642563
	C125.492050,127.988686 111.137856,116.261116 104.752762,96.446510
	C96.258881,70.087807 106.344261,41.278732 129.603241,26.530121
	C153.264328,11.526531 183.571487,14.516512 203.747131,33.864017
	C211.068604,40.884945 214.732620,50.079639 218.210526,59.236214
	C228.828461,87.191040 234.845108,116.337158 240.000397,145.686249
	C240.288147,147.324478 240.605713,148.957443 240.954605,151.022461
M182.096085,50.021862
	C161.297150,48.086147 145.712067,56.179169 136.144775,74.759750
	C125.848083,94.756897 134.167999,122.274498 153.353897,130.727905
	C167.312866,136.878281 181.512360,142.535446 195.829727,147.800339
	C204.695786,151.060638 213.943100,153.326126 223.093964,155.757019
	C230.726517,157.784576 236.254135,153.486038 234.802734,146.479797
	C229.812836,122.392281 224.334091,98.447815 214.971069,75.542534
	C208.981827,60.890690 198.081207,53.004948 182.096085,50.021862
z"/>
<path fill="#78C642" opacity="1.000000" stroke="none"
	d="
M356.615479,17.152327
	C382.669525,20.545435 400.583710,33.932781 409.148804,58.459389
	C418.793030,86.076111 405.869415,117.571884 380.543335,129.761307
	C353.663605,142.698486 325.252533,150.695328 296.544312,157.970718
	C288.330139,160.052429 280.045959,161.857880 270.913574,163.996109
	C271.986755,157.657745 272.972107,151.728058 273.996704,145.805176
	C279.105133,116.275352 285.430634,87.059418 295.810059,58.840981
	C301.712708,42.793610 310.616119,29.501131 326.983368,22.437553
	C336.326294,18.405455 345.999603,16.516905 356.615479,17.152327
M373.109558,120.562408
	C386.376251,103.409798 385.195587,79.736916 370.086792,63.379707
	C348.968262,40.516235 309.983765,47.798183 299.570496,74.168175
	C290.286835,97.677536 284.340576,121.962730 279.191315,146.535263
	C277.763733,153.347687 283.269135,158.073151 290.457092,155.777802
	C311.496124,149.059311 332.504639,142.190613 353.234589,134.588409
	C360.578735,131.895126 367.963104,128.161987 373.109558,120.562408
z"/>
<path fill="#50852D" opacity="1.000000" stroke="none"
	d="
M273.796326,211.000000
	C273.796143,201.873230 273.796143,193.246475 273.796143,183.933563
	C279.711365,183.933563 285.152496,183.821899 290.581635,184.027390
	C291.673218,184.068695 292.932770,185.121841 293.755188,186.033127
	C318.849884,213.839340 343.900085,241.685684 368.946320,269.535614
	C369.150421,269.762543 369.205200,270.123810 369.597137,271.063690
	C358.977936,268.564026 348.562744,266.772003 338.588806,263.594818
	C326.583313,259.770538 319.158600,263.976654 324.026886,278.392090
	C326.254272,284.987640 327.637085,291.869995 329.356293,298.634125
	C329.694763,299.965851 329.819458,301.351868 330.248474,303.966736
	C328.215271,302.281799 327.151978,301.570404 326.293976,300.664551
	C309.462189,282.893585 292.613892,265.137695 275.921021,247.236938
	C274.635315,245.858246 273.928497,243.437912 273.889343,241.482971
	C273.689178,231.492035 273.796631,221.494934 273.796326,211.000000
z"/>
<path fill="#BA1E24" opacity="1.000000" stroke="none"
	d="
M85.955093,357.492584
	C85.721130,355.882935 85.285782,354.273590 85.283386,352.663605
	C85.246353,327.773895 85.265541,302.884125 85.591690,277.334625
	C88.333000,274.203735 90.754318,271.732574 93.175629,269.261383
	C119.901802,269.248047 146.627975,269.234711 173.662018,269.597809
	C148.330261,295.574249 122.697723,321.181335 97.042999,346.766205
	C93.402245,350.397034 89.653725,353.919800 85.955093,357.492584
z"/>
<path fill="#FFFAFA" opacity="1.000000" stroke="none"
	d="
M426.996094,350.977966
	C425.767853,352.077698 424.483765,353.121582 423.319489,354.285278
	C375.987549,401.595673 328.666382,448.916870 281.207581,496.526062
	C273.783722,496.857727 266.496155,496.900024 258.767456,496.876892
	C259.924530,495.121246 261.482513,493.390869 263.126678,491.746643
	C316.853424,438.016998 370.587189,384.294342 424.330383,330.581146
	C425.496277,329.415833 426.784424,328.372833 428.202515,327.021912
	C428.358643,334.251282 428.327789,341.731537 428.296478,349.564270
	C428.295990,349.916748 428.341553,350.375488 428.384583,350.254486
	C427.950470,350.414978 427.473267,350.696472 426.996094,350.977966
z"/>
<path fill="#FFFFFF" opacity="1.000000" stroke="none"
	d="
M154.501495,496.897675
	C188.272598,462.725311 222.508224,428.619751 257.181213,394.083435
	C280.597687,370.641663 303.576874,347.630707 326.556061,324.619781
	C330.075806,328.234314 333.595551,331.848846 337.304413,335.772827
	C325.447998,348.234100 313.424408,360.407776 301.351288,372.532104
	C286.692780,387.252808 271.992493,401.931915 256.864655,417.058990
	C230.033554,443.940582 203.648056,470.392181 177.262543,496.843750
	C169.830368,496.884003 162.398209,496.924255 154.501495,496.897675
z"/>
<path fill="#FDFAFA" opacity="1.000000" stroke="none"
	d="
M87.112625,460.042725
	C88.456772,458.822357 89.854454,457.655579 91.137230,456.373779
	C123.904068,423.633362 156.658890,390.880920 189.716797,357.968445
	C196.147598,363.690155 200.882019,363.117676 205.106857,355.851837
	C210.429657,346.697723 215.380188,337.313568 221.026260,328.366180
	C224.333038,323.125916 228.681427,318.542938 233.077393,313.015228
	C236.298935,318.752106 238.941071,323.457184 241.578156,328.547180
	C231.653229,338.774811 221.703293,348.587463 211.818695,358.465485
	C171.087433,399.169739 130.378265,439.896057 89.645737,480.599030
	C88.494431,481.749481 87.171692,482.728424 85.673431,484.001282
	C85.428429,477.134460 85.438889,470.053741 85.728462,462.362976
	C86.375923,461.182861 86.744270,460.612793 87.112625,460.042725
z"/>
<path fill="#C01F25" opacity="1.000000" stroke="none"
	d="
M177.701050,496.918030
	C203.648056,470.392181 230.033554,443.940582 256.713745,417.367035
	C257.012421,443.469421 257.016388,469.693787 257.035767,496.375000
	C230.747253,496.885376 204.443405,496.938812 177.701050,496.918030
z"/>
<path fill="#B7DE9C" opacity="1.000000" stroke="none"
	d="
M231.133453,184.113693
	C239.759781,184.113693 248.386108,184.113693 257.304077,184.113693
	C257.304077,230.017975 257.304077,275.843628 257.304077,323.120178
	C255.726151,320.367676 254.727615,318.625336 253.728577,316.883270
	C248.854874,308.384613 244.198608,299.748627 238.970505,291.473877
	C237.464249,289.089874 234.311035,287.746429 231.549393,285.397278
	C231.168396,251.283646 231.150925,217.698669 231.133453,184.113693
z"/>
<path fill="#FD1F27" opacity="1.000000" stroke="none"
	d="
M326.406067,324.306732
	C303.576874,347.630707 280.597687,370.641663 257.314819,393.771698
	C257.019440,381.497894 257.027802,369.105042 257.040466,356.222168
	C257.740356,356.640991 258.248566,357.969086 259.166901,358.379608
	C261.856018,359.581757 265.037720,361.669342 267.404358,361.046448
	C269.769928,360.423828 271.710266,357.140930 273.199402,354.643951
	C274.027740,353.254974 273.650848,351.090393 273.654053,349.275055
	C273.684814,331.858429 273.680786,314.441681 274.093140,296.403503
	C278.718842,291.513702 282.938110,287.245422 287.157379,282.977112
	C300.190277,296.649292 313.223175,310.321472 326.406067,324.306732
z"/>
<path fill="#50852D" opacity="1.000000" stroke="none"
	d="
M230.660034,184.039307
	C231.150925,217.698669 231.168396,251.283646 231.193069,285.322388
	C226.835983,286.190674 224.670929,289.224854 222.725067,292.679413
	C217.191833,302.502838 211.564362,312.273163 205.382324,323.100616
	C205.382324,276.169678 205.382324,230.432297 205.382324,183.964920
	C213.699768,183.964920 221.943207,183.964920 230.660034,184.039307
z"/>
<path fill="#FDFAFA" opacity="1.000000" stroke="none"
	d="
M85.852455,357.855896
	C89.653725,353.919800 93.402245,350.397034 97.042999,346.766205
	C122.697723,321.181335 148.330261,295.574249 174.140930,269.694336
	C179.016312,269.414368 183.720673,269.414368 189.017761,269.414368
	C189.017761,271.988220 189.017761,274.528839 188.951538,277.521149
	C181.558731,285.194122 174.192810,292.375977 166.912643,299.643738
	C140.100876,326.409912 113.317482,353.204529 86.042580,380.047607
	C85.561729,380.106781 85.353050,380.500732 85.353058,380.500732
	C85.485306,373.073547 85.617561,365.646393 85.852455,357.855896
z"/>
<path fill="#FFFBFB" opacity="1.000000" stroke="none"
	d="
M361.484680,496.884766
	C383.372894,474.526642 405.725769,452.237305 428.333832,429.712616
	C428.566010,436.639404 428.543030,443.801544 428.201904,451.609344
	C413.173218,467.116486 398.462646,481.977966 383.752075,496.839478
	C376.484497,496.877533 369.216949,496.915558 361.484680,496.884766
z"/>
<path fill="#EA1F27" opacity="1.000000" stroke="none"
	d="
M384.232544,496.915283
	C398.462646,481.977966 413.173218,467.116486 428.112793,452.060547
	C428.341827,466.651367 428.341827,481.436584 428.341827,496.991089
	C413.843018,496.991089 399.277985,496.991089 384.232544,496.915283
z"/>
<path fill="#FDFDFD" opacity="1.000000" stroke="none"
	d="
M382.213745,290.765747
	C372.612610,301.033020 362.667694,311.078583 352.408569,321.277252
	C350.580688,315.718567 349.067047,310.006805 347.878418,303.663330
	C353.613220,297.586334 359.023071,292.141052 364.432922,286.695740
	C370.245239,287.978516 376.057587,289.261261 382.213745,290.765747
z"/>
<path fill="#F92129" opacity="1.000000" stroke="none"
	d="
M364.120056,286.457153
	C359.023071,292.141052 353.613220,297.586334 347.902161,303.266479
	C345.574646,296.262115 343.548370,289.022980 341.264069,280.861969
	C349.487030,282.815887 356.647095,284.517242 364.120056,286.457153
z"/>
<path fill="#FCF7F7" opacity="1.000000" stroke="none"
	d="
M287.036163,282.657227
	C282.938110,287.245422 278.718842,291.513702 274.202087,295.953003
	C273.904633,287.825317 273.904633,279.526672 273.904633,271.227997
	C274.457397,270.952911 275.010193,270.677826 275.562958,270.402710
	C279.346954,274.380920 283.130951,278.359131 287.036163,282.657227
z"/>
<path fill="#E7E7E7" opacity="1.000000" stroke="none"
	d="
M403.833038,269.248901
	C402.146362,271.640533 399.975708,273.939697 397.564392,276.496521
	C395.205109,274.530579 393.086517,272.306946 390.084839,269.156433
	C395.316223,269.156433 399.332672,269.156433 403.833038,269.248901
z"/>
<path fill="#DADADA" opacity="1.000000" stroke="none"
	d="
M92.720718,269.189850
	C90.754318,271.732574 88.333000,274.203735 85.668213,276.878754
	C85.424728,274.656250 85.424728,272.229919 85.424728,269.118317
	C87.835518,269.118317 90.050667,269.118317 92.720718,269.189850
z"/>
<path fill="#BA1E24" opacity="1.000000" stroke="none"
	d="
M86.873077,460.031250
	C86.744270,460.612793 86.375923,461.182861 85.810364,461.905518
	C85.542763,461.587585 85.472366,461.117065 85.541397,460.307007
	C85.998215,459.988312 86.315781,460.005768 86.873077,460.031250
z"/>
<path fill="#BA1E24" opacity="1.000000" stroke="none"
	d="
M85.639885,496.219635
	C86.046021,496.145264 86.399666,496.315674 86.859756,496.658752
	C86.506607,496.709045 86.047005,496.586761 85.639885,496.219635
z"/>
<path fill="#BA1E24" opacity="1.000000" stroke="none"
	d="
M85.272385,380.587036
	C85.353050,380.500732 85.561729,380.106781 85.744247,380.234100
	C85.865128,380.542542 85.754639,380.686096 85.461975,380.828979
	C85.328644,380.865936 85.191711,380.673370 85.272385,380.587036
z"/>
<path fill="#50852D" opacity="1.000000" stroke="none"
	d="
M330.402039,304.300903
	C330.502899,304.196136 330.566406,304.540283 330.566406,304.540283
	C330.566406,304.540283 330.301147,304.405701 330.402039,304.300903
z"/>
<path fill="#EA1F27" opacity="1.000000" stroke="none"
	d="
M427.387329,350.946136
	C427.473267,350.696472 427.950470,350.414978 428.490326,350.459351
	C428.294861,350.828247 428.036743,350.871277 427.387329,350.946136
z"/>
<path fill="#FFFEFE" opacity="1.000000" stroke="none"
	d="
M423.824310,194.768570
	C431.435028,192.254150 435.907898,195.329498 435.979675,202.907227
	C436.078857,213.377090 436.060608,223.849045 435.979614,234.319229
	C435.938019,239.697739 432.679443,243.447449 428.220032,243.593063
	C423.607208,243.743683 420.067596,239.843475 420.023193,234.241364
	C419.940277,223.771210 419.767792,213.291229 420.159882,202.835129
	C420.259399,200.181091 422.343140,197.601456 423.824310,194.768570
z"/>
<path fill="#010201" opacity="1.000000" stroke="none"
	d="
M182.547241,50.045921
	C198.081207,53.004948 208.981827,60.890690 214.971069,75.542534
	C224.334091,98.447815 229.812836,122.392281 234.802734,146.479797
	C236.254135,153.486038 230.726517,157.784576 223.093964,155.757019
	C213.943100,153.326126 204.695786,151.060638 195.829727,147.800339
	C181.512360,142.535446 167.312866,136.878281 153.353897,130.727905
	C134.167999,122.274498 125.848083,94.756897 136.144775,74.759750
	C145.712067,56.179169 161.297150,48.086147 182.547241,50.045921
M196.533997,76.026215
	C194.157669,73.974663 191.981171,71.614754 189.371338,69.923523
	C176.213425,61.396866 160.223785,67.115250 152.312103,79.463249
	C144.013855,92.414543 148.404526,110.376732 161.852264,116.291916
	C173.687698,121.497902 185.714096,126.290154 197.782242,130.937759
	C203.528122,133.150574 209.567093,134.602341 215.973434,136.550964
	C213.152328,125.662796 211.001541,115.610039 207.895233,105.861763
	C204.743958,95.972389 200.649124,86.383682 196.533997,76.026215
z"/>
<path fill="#010201" opacity="1.000000" stroke="none"
	d="
M372.886322,120.844276
	C367.963104,128.161987 360.578735,131.895126 353.234589,134.588409
	C332.504639,142.190613 311.496124,149.059311 290.457092,155.777802
	C283.269135,158.073151 277.763733,153.347687 279.191315,146.535263
	C284.340576,121.962730 290.286835,97.677536 299.570496,74.168175
	C309.983765,47.798183 348.968262,40.516235 370.086792,63.379707
	C385.195587,79.736916 386.376251,103.409798 372.886322,120.844276
M360.975616,109.238365
	C364.328522,103.765594 366.919922,97.727165 365.828552,91.429184
	C363.364868,77.211456 355.802551,69.443115 342.097595,66.187996
	C334.102417,64.289032 320.432281,68.940315 315.938293,78.747292
	C307.565125,97.019585 303.056824,116.388908 298.355591,135.964615
	C299.503662,135.964615 300.398224,136.183334 301.131683,135.931976
	C313.091980,131.833511 325.128906,127.931152 336.943848,123.445396
	C345.488953,120.201080 354.279724,117.112312 360.975616,109.238365
z"/>
<path fill="#FFFFFF" opacity="1.000000" stroke="none"
	d="
M196.750778,76.344757
	C200.649124,86.383682 204.743958,95.972389 207.895233,105.861763
	C211.001541,115.610039 213.152328,125.662796 215.973434,136.550964
	C209.567093,134.602341 203.528122,133.150574 197.782242,130.937759
	C185.714096,126.290154 173.687698,121.497902 161.852264,116.291916
	C148.404526,110.376732 144.013855,92.414543 152.312103,79.463249
	C160.223785,67.115250 176.213425,61.396866 189.371338,69.923523
	C191.981171,71.614754 194.157669,73.974663 196.750778,76.344757
z"/>
<path fill="#FFFFFF" opacity="1.000000" stroke="none"
	d="
M360.799683,109.569000
	C354.279724,117.112312 345.488953,120.201080 336.943848,123.445396
	C325.128906,127.931152 313.091980,131.833511 301.131683,135.931976
	C300.398224,136.183334 299.503662,135.964615 298.355591,135.964615
	C303.056824,116.388908 307.565125,97.019585 315.938293,78.747292
	C320.432281,68.940315 334.102417,64.289032 342.097595,66.187996
	C355.802551,69.443115 363.364868,77.211456 365.828552,91.429184
	C366.919922,97.727165 364.328522,103.765594 360.799683,109.569000
z"/>
</svg>